<svg width="100%" height="100%" viewBox="0 0 228 143" fill="none" xmlns="http://www.w3.org/2000/svg">
<g filter="url(#filter0_d_188_18)">
<path fill-rule="evenodd" clip-rule="evenodd" d="M93.75 0.81604L4.5 67.5L93.75 134.184V101H174V34H93.75V0.81604Z" fill="#FFBB37"/>
</g>
<path d="M50.268 80.432C48.252 80.432 46.32 80.168 44.472 79.64C42.624 79.088 41.136 78.38 40.008 77.516L41.988 73.124C43.068 73.892 44.34 74.528 45.804 75.032C47.292 75.512 48.792 75.752 50.304 75.752C51.456 75.752 52.38 75.644 53.076 75.428C53.796 75.188 54.324 74.864 54.66 74.456C54.996 74.048 55.164 73.58 55.164 73.052C55.164 72.38 54.9 71.852 54.372 71.468C53.844 71.06 53.148 70.736 52.284 70.496C51.42 70.232 50.46 69.992 49.404 69.776C48.372 69.536 47.328 69.248 46.272 68.912C45.24 68.576 44.292 68.144 43.428 67.616C42.564 67.088 41.856 66.392 41.304 65.528C40.776 64.664 40.512 63.56 40.512 62.216C40.512 60.776 40.896 59.468 41.664 58.292C42.456 57.092 43.632 56.144 45.192 55.448C46.776 54.728 48.756 54.368 51.132 54.368C52.716 54.368 54.276 54.56 55.812 54.944C57.348 55.304 58.704 55.856 59.88 56.6L58.08 61.028C56.904 60.356 55.728 59.864 54.552 59.552C53.376 59.216 52.224 59.048 51.096 59.048C49.968 59.048 49.044 59.18 48.324 59.444C47.604 59.708 47.088 60.056 46.776 60.488C46.464 60.896 46.308 61.376 46.308 61.928C46.308 62.576 46.572 63.104 47.1 63.512C47.628 63.896 48.324 64.208 49.188 64.448C50.052 64.688 51 64.928 52.032 65.168C53.088 65.408 54.132 65.684 55.164 65.996C56.22 66.308 57.18 66.728 58.044 67.256C58.908 67.784 59.604 68.48 60.132 69.344C60.684 70.208 60.96 71.3 60.96 72.62C60.96 74.036 60.564 75.332 59.772 76.508C58.98 77.684 57.792 78.632 56.208 79.352C54.648 80.072 52.668 80.432 50.268 80.432ZM68.6255 80L61.6415 60.632H66.9335L72.7295 77.3H70.2095L76.2575 60.632H81.0095L86.8775 77.3H84.3575L90.3335 60.632H95.3015L88.2815 80H82.8455L77.6975 65.708H79.3535L74.0255 80H68.6255ZM97.9123 80V60.632H103.528V80H97.9123ZM100.72 57.932C99.6883 57.932 98.8483 57.632 98.2003 57.032C97.5523 56.432 97.2283 55.688 97.2283 54.8C97.2283 53.912 97.5523 53.168 98.2003 52.568C98.8483 51.968 99.6883 51.668 100.72 51.668C101.752 51.668 102.592 51.956 103.24 52.532C103.888 53.084 104.212 53.804 104.212 54.692C104.212 55.628 103.888 56.408 103.24 57.032C102.616 57.632 101.776 57.932 100.72 57.932ZM120.188 80.288C118.556 80.288 117.128 79.928 115.904 79.208C114.68 78.488 113.72 77.396 113.024 75.932C112.352 74.444 112.016 72.572 112.016 70.316C112.016 68.036 112.34 66.164 112.988 64.7C113.636 63.236 114.572 62.144 115.796 61.424C117.02 60.704 118.484 60.344 120.188 60.344C122.012 60.344 123.644 60.764 125.084 61.604C126.548 62.42 127.7 63.572 128.54 65.06C129.404 66.548 129.836 68.3 129.836 70.316C129.836 72.356 129.404 74.12 128.54 75.608C127.7 77.096 126.548 78.248 125.084 79.064C123.644 79.88 122.012 80.288 120.188 80.288ZM108.74 86.984V60.632H114.104V64.592L113.996 70.352L114.356 76.076V86.984H108.74ZM119.216 75.68C120.152 75.68 120.98 75.464 121.7 75.032C122.444 74.6 123.032 73.988 123.464 73.196C123.92 72.38 124.148 71.42 124.148 70.316C124.148 69.188 123.92 68.228 123.464 67.436C123.032 66.644 122.444 66.032 121.7 65.6C120.98 65.168 120.152 64.952 119.216 64.952C118.28 64.952 117.44 65.168 116.696 65.6C115.952 66.032 115.364 66.644 114.932 67.436C114.5 68.228 114.284 69.188 114.284 70.316C114.284 71.42 114.5 72.38 114.932 73.196C115.364 73.988 115.952 74.6 116.696 75.032C117.44 75.464 118.28 75.68 119.216 75.68ZM143.208 80.288C141 80.288 139.056 79.856 137.376 78.992C135.72 78.128 134.436 76.952 133.524 75.464C132.612 73.952 132.156 72.236 132.156 70.316C132.156 68.372 132.6 66.656 133.488 65.168C134.4 63.656 135.636 62.48 137.196 61.64C138.756 60.776 140.52 60.344 142.488 60.344C144.384 60.344 146.088 60.752 147.6 61.568C149.136 62.36 150.348 63.512 151.236 65.024C152.124 66.512 152.568 68.3 152.568 70.388C152.568 70.604 152.556 70.856 152.532 71.144C152.508 71.408 152.484 71.66 152.46 71.9H136.728V68.624H149.508L147.348 69.596C147.348 68.588 147.144 67.712 146.736 66.968C146.328 66.224 145.764 65.648 145.044 65.24C144.324 64.808 143.484 64.592 142.524 64.592C141.564 64.592 140.712 64.808 139.968 65.24C139.248 65.648 138.684 66.236 138.276 67.004C137.868 67.748 137.664 68.636 137.664 69.668V70.532C137.664 71.588 137.892 72.524 138.348 73.34C138.828 74.132 139.488 74.744 140.328 75.176C141.192 75.584 142.2 75.788 143.352 75.788C144.384 75.788 145.284 75.632 146.052 75.32C146.844 75.008 147.564 74.54 148.212 73.916L151.2 77.156C150.312 78.164 149.196 78.944 147.852 79.496C146.508 80.024 144.96 80.288 143.208 80.288ZM156.703 71.252L155.587 54.8H162.283L161.167 71.252H156.703ZM158.935 80.288C157.927 80.288 157.099 79.964 156.451 79.316C155.803 78.668 155.479 77.9 155.479 77.012C155.479 76.1 155.803 75.344 156.451 74.744C157.099 74.12 157.927 73.808 158.935 73.808C159.967 73.808 160.795 74.12 161.419 74.744C162.067 75.344 162.391 76.1 162.391 77.012C162.391 77.9 162.067 78.668 161.419 79.316C160.795 79.964 159.967 80.288 158.935 80.288Z" fill="white"/>
<defs>
<filter id="filter0_d_188_18" x="0.5" y="0.81604" width="177.5" height="141.368" filterUnits="userSpaceOnUse" color-interpolation-filters="sRGB">
<feFlood flood-opacity="0" result="BackgroundImageFix"/>
<feColorMatrix in="SourceAlpha" type="matrix" values="0 0 0 0 0 0 0 0 0 0 0 0 0 0 0 0 0 0 127 0" result="hardAlpha"/>
<feOffset dy="4"/>
<feGaussianBlur stdDeviation="2"/>
<feComposite in2="hardAlpha" operator="out"/>
<feColorMatrix type="matrix" values="0 0 0 0 0 0 0 0 0 0 0 0 0 0 0 0 0 0 0.25 0"/>
<feBlend mode="normal" in2="BackgroundImageFix" result="effect1_dropShadow_188_18"/>
<feBlend mode="normal" in="SourceGraphic" in2="effect1_dropShadow_188_18" result="shape"/>
</filter>
</defs>
</svg>
